<svg id="visual" viewBox="0 0 1920 1080" width="1920" height="1080" xmlns="http://www.w3.org/2000/svg" xmlns:xlink="http://www.w3.org/1999/xlink" version="1.1"><path d="M0 174L29.2 197.3C58.3 220.7 116.7 267.3 174.8 267.3C233 267.3 291 220.7 349.2 236.8C407.3 253 465.7 332 523.8 335.5C582 339 640 267 698.2 225.7C756.3 184.3 814.7 173.7 872.8 193.5C931 213.3 989 263.7 1047.2 267.3C1105.3 271 1163.7 228 1221.8 229.8C1280 231.7 1338 278.3 1396.2 305.3C1454.3 332.3 1512.7 339.7 1570.8 323.5C1629 307.3 1687 267.7 1745.2 264C1803.3 260.3 1861.7 292.7 1890.8 308.8L1920 325L1920 0L1890.8 0C1861.7 0 1803.3 0 1745.2 0C1687 0 1629 0 1570.8 0C1512.7 0 1454.3 0 1396.2 0C1338 0 1280 0 1221.8 0C1163.7 0 1105.3 0 1047.2 0C989 0 931 0 872.8 0C814.7 0 756.3 0 698.2 0C640 0 582 0 523.8 0C465.7 0 407.3 0 349.2 0C291 0 233 0 174.8 0C116.7 0 58.3 0 29.2 0L0 0Z" fill="#06427a"></path><path d="M0 681L29.2 668.5C58.3 656 116.7 631 174.8 632.8C233 634.7 291 663.3 349.2 663.3C407.3 663.3 465.7 634.7 523.8 604.2C582 573.7 640 541.3 698.2 528.7C756.3 516 814.7 523 872.8 550C931 577 989 624 1047.2 661.8C1105.3 699.7 1163.7 728.3 1221.8 719.3C1280 710.3 1338 663.7 1396.2 634.8C1454.3 606 1512.7 595 1570.8 587.7C1629 580.3 1687 576.7 1745.2 585.7C1803.3 594.7 1861.7 616.3 1890.8 627.2L1920 638L1920 323L1890.8 306.8C1861.7 290.7 1803.3 258.3 1745.2 262C1687 265.7 1629 305.3 1570.8 321.5C1512.7 337.7 1454.3 330.3 1396.2 303.3C1338 276.3 1280 229.7 1221.8 227.8C1163.7 226 1105.3 269 1047.2 265.3C989 261.7 931 211.3 872.8 191.5C814.7 171.7 756.3 182.3 698.2 223.7C640 265 582 337 523.8 333.5C465.7 330 407.3 251 349.2 234.8C291 218.7 233 265.3 174.8 265.3C116.7 265.3 58.3 218.7 29.2 195.3L0 172Z" fill="#02305c"></path><path d="M0 779L29.2 786.2C58.3 793.3 116.7 807.7 174.8 823.8C233 840 291 858 349.2 852.5C407.3 847 465.7 818 523.8 803.5C582 789 640 789 698.2 785.5C756.3 782 814.7 775 872.8 778.7C931 782.3 989 796.7 1047.2 820C1105.3 843.3 1163.7 875.7 1221.8 861.3C1280 847 1338 786 1396.2 766.2C1454.3 746.3 1512.7 767.7 1570.8 773C1629 778.3 1687 767.7 1745.2 767.7C1803.3 767.7 1861.7 778.3 1890.8 783.7L1920 789L1920 636L1890.8 625.2C1861.7 614.3 1803.3 592.7 1745.2 583.7C1687 574.7 1629 578.3 1570.8 585.7C1512.7 593 1454.3 604 1396.2 632.8C1338 661.7 1280 708.3 1221.8 717.3C1163.7 726.3 1105.3 697.7 1047.2 659.8C989 622 931 575 872.8 548C814.7 521 756.3 514 698.2 526.7C640 539.3 582 571.7 523.8 602.2C465.7 632.7 407.3 661.3 349.2 661.3C291 661.3 233 632.7 174.8 630.8C116.7 629 58.3 654 29.2 666.5L0 679Z" fill="#001f3f"></path><path d="M0 930L29.2 930C58.3 930 116.7 930 174.8 933.5C233 937 291 944 349.2 958.3C407.3 972.7 465.7 994.3 523.8 999.8C582 1005.3 640 994.7 698.2 987.5C756.3 980.3 814.7 976.7 872.8 973C931 969.3 989 965.7 1047.2 967.5C1105.3 969.3 1163.7 976.7 1221.8 971.3C1280 966 1338 948 1396.2 942.5C1454.3 937 1512.7 944 1570.8 945.8C1629 947.7 1687 944.3 1745.2 937.2C1803.3 930 1861.7 919 1890.8 913.5L1920 908L1920 787L1890.8 781.7C1861.7 776.3 1803.3 765.7 1745.2 765.7C1687 765.7 1629 776.3 1570.8 771C1512.7 765.7 1454.3 744.3 1396.2 764.2C1338 784 1280 845 1221.8 859.3C1163.7 873.7 1105.3 841.3 1047.2 818C989 794.7 931 780.3 872.8 776.7C814.7 773 756.3 780 698.2 783.5C640 787 582 787 523.8 801.5C465.7 816 407.3 845 349.2 850.5C291 856 233 838 174.8 821.8C116.7 805.7 58.3 791.3 29.2 784.2L0 777Z" fill="#011c37"></path><path d="M0 1081L29.2 1081C58.3 1081 116.7 1081 174.8 1081C233 1081 291 1081 349.2 1081C407.3 1081 465.7 1081 523.8 1081C582 1081 640 1081 698.2 1081C756.3 1081 814.7 1081 872.8 1081C931 1081 989 1081 1047.2 1081C1105.3 1081 1163.7 1081 1221.8 1081C1280 1081 1338 1081 1396.2 1081C1454.3 1081 1512.7 1081 1570.8 1081C1629 1081 1687 1081 1745.2 1081C1803.3 1081 1861.7 1081 1890.8 1081L1920 1081L1920 906L1890.8 911.5C1861.7 917 1803.3 928 1745.2 935.2C1687 942.3 1629 945.7 1570.8 943.8C1512.7 942 1454.3 935 1396.2 940.5C1338 946 1280 964 1221.8 969.3C1163.7 974.7 1105.3 967.3 1047.2 965.5C989 963.7 931 967.3 872.8 971C814.7 974.7 756.3 978.3 698.2 985.5C640 992.7 582 1003.3 523.8 997.8C465.7 992.3 407.3 970.7 349.2 956.3C291 942 233 935 174.8 931.5C116.7 928 58.3 928 29.2 928L0 928Z" fill="#02192f"></path></svg>