<svg class="animated" id="freepik_stories-navigation" xmlns="http://www.w3.org/2000/svg" xmlns:xlink="http://www.w3.org/1999/xlink" viewBox="0 0 500 500" version="1.1" xmlns:svgjs="http://svgjs.com/svgjs"><style>svg#freepik_stories-navigation:not(.animated) .animable {opacity: 0;}svg#freepik_stories-navigation.animated #freepik--background-complete--inject-23 {animation: 3s Infinite  linear floating;animation-delay: 0s;}svg#freepik_stories-navigation.animated #freepik--Shadow--inject-23 {animation: 3s Infinite  linear floating;animation-delay: 0s;}svg#freepik_stories-navigation.animated #freepik--Navigation--inject-23 {animation: 3s Infinite  linear floating;animation-delay: 0s;}svg#freepik_stories-navigation.animated #freepik--Character--inject-23 {animation: 3s Infinite  linear floating;animation-delay: 0s;}            @keyframes floating {                0% {                    opacity: 1;                    transform: translateY(0px);                }                50% {                    transform: translateY(-10px);                }                100% {                    opacity: 1;                    transform: translateY(0px);                }            }        </style><g id="freepik--background-complete--inject-23" class="animable" style="transform-origin: 250px 228.23px;"><rect y="382.4" width="500" height="0.25" style="fill: rgb(235, 235, 235); transform-origin: 250px 382.525px;" id="el37jbqg4s3fc" class="animable"></rect><rect x="322.53" y="401.21" width="8.69" height="0.25" style="fill: rgb(235, 235, 235); transform-origin: 326.875px 401.335px;" id="eln1cuemt284t" class="animable"></rect><rect x="150.04" y="388.78" width="23.18" height="0.25" style="fill: rgb(235, 235, 235); transform-origin: 161.63px 388.905px;" id="elfr0edbo3om" class="animable"></rect><rect x="402.1" y="394.14" width="56.67" height="0.25" style="fill: rgb(235, 235, 235); transform-origin: 430.435px 394.265px;" id="el4prexn7n8h6" class="animable"></rect><rect x="42.72" y="394.14" width="56.67" height="0.25" style="fill: rgb(235, 235, 235); transform-origin: 71.055px 394.265px;" id="elydtxavfcno" class="animable"></rect><path d="M237,337.8H43.92a5.71,5.71,0,0,1-5.71-5.71V60.66A5.71,5.71,0,0,1,43.92,55H237a5.71,5.71,0,0,1,5.71,5.71V332.09A5.71,5.71,0,0,1,237,337.8ZM43.92,55.2a5.47,5.47,0,0,0-5.46,5.46V332.09a5.47,5.47,0,0,0,5.46,5.46H237a5.47,5.47,0,0,0,5.46-5.46V60.66A5.47,5.47,0,0,0,237,55.2Z" style="fill: rgb(235, 235, 235); transform-origin: 140.46px 196.4px;" id="elrt39qhtdh19" class="animable"></path><path d="M453.31,337.8H260.21a5.72,5.72,0,0,1-5.71-5.71V60.66A5.72,5.72,0,0,1,260.21,55h193.1A5.71,5.71,0,0,1,459,60.66V332.09A5.71,5.71,0,0,1,453.31,337.8ZM260.21,55.2a5.47,5.47,0,0,0-5.46,5.46V332.09a5.47,5.47,0,0,0,5.46,5.46h193.1a5.47,5.47,0,0,0,5.46-5.46V60.66a5.47,5.47,0,0,0-5.46-5.46Z" style="fill: rgb(235, 235, 235); transform-origin: 356.75px 196.4px;" id="eln3awut590ol" class="animable"></path><rect x="81.08" y="80.06" width="134.71" height="118.26" style="fill: rgb(230, 230, 230); transform-origin: 148.435px 139.19px;" id="el0on0w8mnc0z" class="animable"></rect><path d="M230.23,75.46H72.36A1.34,1.34,0,0,0,71,76.8h0a1.34,1.34,0,0,0,1.33,1.33H230.23a1.34,1.34,0,0,0,1.34-1.33h0A1.34,1.34,0,0,0,230.23,75.46Z" style="fill: rgb(245, 245, 245); transform-origin: 151.285px 76.7949px;" id="elpy7gdjdf5k" class="animable"></path><rect x="83.75" y="80.06" width="137.76" height="118.26" style="fill: rgb(235, 235, 235); transform-origin: 152.63px 139.19px;" id="el3mis476mqfq" class="animable"></rect><g id="elnyivduqq1s"><rect x="101.51" y="78.31" width="102.26" height="121.75" style="fill: rgb(250, 250, 250); transform-origin: 152.64px 139.185px; transform: rotate(90deg);" class="animable" id="elpju9q4n2mb"></rect></g><polygon points="135.87 190.32 149.89 88.06 172.06 88.06 158.04 190.32 135.87 190.32" style="fill: rgb(255, 255, 255); transform-origin: 153.965px 139.19px;" id="el0uzctuwzt4" class="animable"></polygon><polygon points="162.81 190.32 176.82 88.06 185.47 88.06 171.45 190.32 162.81 190.32" style="fill: rgb(255, 255, 255); transform-origin: 174.14px 139.19px;" id="el95whev9emlf" class="animable"></polygon><g id="elfs3mnh2tlm5"><rect x="161.87" y="138.68" width="102.26" height="1.02" style="fill: rgb(230, 230, 230); transform-origin: 213px 139.19px; transform: rotate(90deg);" class="animable" id="elsoytiic89vi"></rect></g><g id="el5z6a5c4jt15"><g style="opacity: 0.4; transform-origin: 98.735px 169.035px;" class="animable" id="elx2xfxg69l0f"><rect x="78.08" y="73.07" width="13.77" height="191.93" style="fill: rgb(240, 240, 240); transform-origin: 84.965px 169.035px;" id="el89dzkqxf4vd" class="animable"></rect><rect x="86.49" y="73.07" width="10.73" height="191.93" style="fill: rgb(230, 230, 230); transform-origin: 91.855px 169.035px;" id="elueykagzjrt" class="animable"></rect><rect x="91.85" y="73.07" width="13.77" height="191.93" style="fill: rgb(240, 240, 240); transform-origin: 98.735px 169.035px;" id="ela97ufg9dbar" class="animable"></rect><rect x="100.26" y="73.07" width="10.73" height="191.93" style="fill: rgb(230, 230, 230); transform-origin: 105.625px 169.035px;" id="elbx4cet2umb7" class="animable"></rect><rect x="105.62" y="73.07" width="13.77" height="191.93" style="fill: rgb(240, 240, 240); transform-origin: 112.505px 169.035px;" id="el0bopi7sanlor" class="animable"></rect></g></g><g id="elvbakpbx1lvg"><g style="opacity: 0.4; transform-origin: 212.355px 169.035px;" class="animable" id="elle6k59uvouc"><rect x="200.45" y="73.07" width="7.94" height="191.93" style="fill: rgb(240, 240, 240); transform-origin: 204.42px 169.035px;" id="elq79j2rux0pl" class="animable"></rect><rect x="205.29" y="73.07" width="6.18" height="191.93" style="fill: rgb(230, 230, 230); transform-origin: 208.38px 169.035px;" id="elq47aoz869wr" class="animable"></rect><rect x="208.38" y="73.07" width="7.94" height="191.93" style="fill: rgb(240, 240, 240); transform-origin: 212.35px 169.035px;" id="el82ule0gohpb" class="animable"></rect><rect x="213.23" y="73.07" width="6.18" height="191.93" style="fill: rgb(230, 230, 230); transform-origin: 216.32px 169.035px;" id="el08rmx0k1bwhk" class="animable"></rect><rect x="216.32" y="73.07" width="7.94" height="191.93" style="fill: rgb(240, 240, 240); transform-origin: 220.29px 169.035px;" id="el5k8sxe4f5qw" class="animable"></rect></g></g><g id="el1x62c84b3r3"><rect x="289.99" y="233.42" width="225.62" height="72.34" style="fill: rgb(240, 240, 240); transform-origin: 402.8px 269.59px; transform: rotate(90deg);" class="animable" id="elvhnkfhojsi8"></rect></g><g id="elek45kp8v0b6"><rect x="369.59" y="163.44" width="66.42" height="64.4" style="fill: rgb(230, 230, 230); transform-origin: 402.8px 195.64px; transform: rotate(90deg);" class="animable" id="eloxjwyz89frn"></rect></g><g id="elp2m3cfa3rce"><rect x="369.59" y="235.82" width="66.42" height="64.4" style="fill: rgb(230, 230, 230); transform-origin: 402.8px 268.02px; transform: rotate(90deg);" class="animable" id="elj1w0rltmpef"></rect></g><g id="elowh12u9eigq"><rect x="369.59" y="308.2" width="66.42" height="64.4" style="fill: rgb(230, 230, 230); transform-origin: 402.8px 340.4px; transform: rotate(90deg);" class="animable" id="eljowts5ld7qi"></rect></g><g id="elmjio5at6hz"><rect x="389.13" y="182.98" width="66.42" height="25.33" style="fill: rgb(224, 224, 224); transform-origin: 422.34px 195.645px; transform: rotate(90deg);" class="animable" id="ely8bpbgofl"></rect></g><g id="el3pcnqdcserb"><rect x="389.13" y="255.36" width="66.42" height="25.33" style="fill: rgb(224, 224, 224); transform-origin: 422.34px 268.025px; transform: rotate(90deg);" class="animable" id="elj8e7aavvis"></rect></g><rect x="407.79" y="202.32" width="17.55" height="26.53" style="fill: rgb(240, 240, 240); transform-origin: 416.565px 215.585px;" id="elop7hspzjyk9" class="animable"></rect><g id="elr9xy0vqi6d"><rect x="400.38" y="202.32" width="7.41" height="26.53" style="fill: rgb(224, 224, 224); transform-origin: 404.085px 215.585px; transform: rotate(180deg);" class="animable" id="el90mgcwgnxhq"></rect></g><rect x="381.55" y="209.22" width="22.54" height="19.63" style="fill: rgb(240, 240, 240); transform-origin: 392.82px 219.035px;" id="elb35l2y2w7z6" class="animable"></rect><g id="elesb3gwu3e8m"><rect x="372.04" y="209.22" width="9.52" height="19.63" style="fill: rgb(224, 224, 224); transform-origin: 376.8px 219.035px; transform: rotate(180deg);" class="animable" id="ell1yjsy9ckz"></rect></g><g id="elrx1v375v49i"><rect x="389.13" y="327.73" width="66.42" height="25.33" style="fill: rgb(224, 224, 224); transform-origin: 422.34px 340.395px; transform: rotate(90deg);" class="animable" id="el4y8sc4urvzm"></rect></g><g id="eliaowv4his3"><rect x="244" y="259.77" width="225.62" height="19.64" style="fill: rgb(245, 245, 245); transform-origin: 356.81px 269.59px; transform: rotate(90deg);" class="animable" id="el2b9v95yzjxd"></rect></g><rect x="379.95" y="334.67" width="47.84" height="38.94" style="fill: rgb(240, 240, 240); transform-origin: 403.87px 354.14px;" id="elwqrvkyzf0zi" class="animable"></rect><g id="elx94gkpjeaj"><rect x="370.6" y="334.67" width="9.35" height="38.94" style="fill: rgb(224, 224, 224); transform-origin: 375.275px 354.14px; transform: rotate(180deg);" class="animable" id="elw8nj4ld218"></rect></g><rect x="376.89" y="270.33" width="42.51" height="30.9" style="fill: rgb(250, 250, 250); transform-origin: 398.145px 285.78px;" id="elj7jwz0edx6" class="animable"></rect><g id="elxlud64xz3c"><rect x="370.6" y="270.33" width="6.29" height="30.9" style="fill: rgb(240, 240, 240); transform-origin: 373.745px 285.78px; transform: rotate(180deg);" class="animable" id="el70ohpc4acy4"></rect></g><g id="els1af16nddm"><rect x="213.87" y="233.42" width="225.62" height="72.34" style="fill: rgb(240, 240, 240); transform-origin: 326.68px 269.59px; transform: rotate(90deg);" class="animable" id="elz07bwred7vr"></rect></g><g id="el7qfwmov462"><rect x="293.47" y="163.44" width="66.42" height="64.4" style="fill: rgb(230, 230, 230); transform-origin: 326.68px 195.64px; transform: rotate(90deg);" class="animable" id="elk6il838bh3f"></rect></g><g id="el8b12nqcllu"><rect x="293.47" y="235.82" width="66.42" height="64.4" style="fill: rgb(230, 230, 230); transform-origin: 326.68px 268.02px; transform: rotate(90deg);" class="animable" id="eljcu66qhgpl"></rect></g><g id="elprp36qjc66"><rect x="293.47" y="308.2" width="66.42" height="64.4" style="fill: rgb(230, 230, 230); transform-origin: 326.68px 340.4px; transform: rotate(90deg);" class="animable" id="ell2fqjly7lsa"></rect></g><g id="elc2qetzbqaxs"><rect x="313.01" y="182.98" width="66.42" height="25.33" style="fill: rgb(224, 224, 224); transform-origin: 346.22px 195.645px; transform: rotate(90deg);" class="animable" id="el2r3voiob3nc"></rect></g><g id="elxe33xozk0rc"><rect x="313.01" y="255.36" width="66.42" height="25.33" style="fill: rgb(224, 224, 224); transform-origin: 346.22px 268.025px; transform: rotate(90deg);" class="animable" id="el7xzpzp6sjfi"></rect></g><rect x="304.66" y="281.95" width="17.55" height="19.28" style="fill: rgb(240, 240, 240); transform-origin: 313.435px 291.59px;" id="eltlwf51hylh" class="animable"></rect><g id="elbwvxlltwmy5"><rect x="297.26" y="281.95" width="7.41" height="19.28" style="fill: rgb(224, 224, 224); transform-origin: 300.965px 291.59px; transform: rotate(180deg);" class="animable" id="elmwii4ezs8hr"></rect></g><rect x="320.53" y="262.67" width="17.55" height="19.28" style="fill: rgb(240, 240, 240); transform-origin: 329.305px 272.31px;" id="elk68tzb0zno" class="animable"></rect><g id="elpteumsrxlnd"><rect x="313.13" y="262.67" width="7.41" height="19.28" style="fill: rgb(224, 224, 224); transform-origin: 316.835px 272.31px; transform: rotate(180deg);" class="animable" id="elloc9uhlgtz"></rect></g><rect x="333.01" y="281.95" width="17.55" height="19.28" style="fill: rgb(240, 240, 240); transform-origin: 341.785px 291.59px;" id="elsi4nwtzye8b" class="animable"></rect><g id="el7w81ienxrd3"><rect x="325.6" y="281.95" width="7.41" height="19.28" style="fill: rgb(224, 224, 224); transform-origin: 329.305px 291.59px; transform: rotate(180deg);" class="animable" id="elp48b1q1tj4"></rect></g><g id="eltyncq04cbv8"><rect x="313.01" y="327.73" width="66.42" height="25.33" style="fill: rgb(224, 224, 224); transform-origin: 346.22px 340.395px; transform: rotate(90deg);" class="animable" id="elba4fxpean0d"></rect></g><g id="el758w001qwx"><rect x="167.88" y="259.77" width="225.62" height="19.64" style="fill: rgb(245, 245, 245); transform-origin: 280.69px 269.59px; transform: rotate(90deg);" class="animable" id="elusplvoauc6"></rect></g><rect x="302.22" y="320.88" width="39.57" height="52.73" style="fill: rgb(240, 240, 240); transform-origin: 322.005px 347.245px;" id="elbzqott8khi" class="animable"></rect><g id="elnyke1878ca"><rect x="294.48" y="320.88" width="7.74" height="52.73" style="fill: rgb(224, 224, 224); transform-origin: 298.35px 347.245px; transform: rotate(180deg);" class="animable" id="elxv859vrbay"></rect></g><rect x="302.22" y="187" width="52.29" height="41.85" style="fill: rgb(250, 250, 250); transform-origin: 328.365px 207.925px;" id="el8g9qyq4j94s" class="animable"></rect><g id="el52ultedxc7w"><rect x="294.48" y="187" width="7.74" height="41.85" style="fill: rgb(240, 240, 240); transform-origin: 298.35px 207.925px; transform: rotate(180deg);" class="animable" id="el7uf08lcl3ru"></rect></g><g id="el6vloyjsccnp"><circle cx="334.91" cy="130" r="9.37" style="fill: rgb(245, 245, 245); transform-origin: 334.91px 130px; transform: rotate(-75.8deg);" class="animable" id="el2xgmx7hnz6u"></circle></g><g id="elbut7xlkh8nk"><circle cx="349.39" cy="129.11" r="9.37" style="fill: rgb(224, 224, 224); transform-origin: 349.39px 129.11px; transform: rotate(-0.78deg);" class="animable" id="elm4786enbto"></circle></g><g id="el1uz6l2c2fhn"><circle cx="360.01" cy="124.04" r="9.37" style="fill: rgb(245, 245, 245); transform-origin: 360.01px 124.04px; transform: rotate(-2.17deg);" class="animable" id="elrfm0vmfoq0e"></circle></g><g id="elvothiex324g"><circle cx="373.07" cy="131.84" r="9.37" style="fill: rgb(224, 224, 224); transform-origin: 373.07px 131.84px; transform: rotate(-2.17deg);" class="animable" id="elkka28wh0ft"></circle></g><g id="eln20a3w4zb5"><circle cx="385.42" cy="130" r="9.37" style="fill: rgb(224, 224, 224); transform-origin: 385.42px 130px; transform: rotate(-30.26deg);" class="animable" id="elwl07d4klpx"></circle></g><path d="M400.12,130.75s-1.09,26-42.91,26-42.91-26-42.91-26Z" style="fill: rgb(240, 240, 240); transform-origin: 357.21px 143.75px;" id="el35x0kxt19zw" class="animable"></path><rect x="61.03" y="275.65" width="11.56" height="100.27" style="fill: rgb(240, 240, 240); transform-origin: 66.81px 325.785px;" id="elu3gleir11za" class="animable"></rect><rect x="65.47" y="375.92" width="177" height="6.35" style="fill: rgb(240, 240, 240); transform-origin: 153.97px 379.095px;" id="elcdcopajy06" class="animable"></rect><g id="elcx2xskax186"><rect x="72.59" y="275.65" width="174.32" height="100.27" style="fill: rgb(245, 245, 245); transform-origin: 159.75px 325.785px; transform: rotate(180deg);" class="animable" id="ely2r88k5nwii"></rect></g><g id="elcp2arqwevt4"><rect x="81.68" y="287.99" width="156.14" height="32.88" rx="7.12" style="fill: rgb(240, 240, 240); transform-origin: 159.75px 304.43px; transform: rotate(180deg);" class="animable" id="elpy1m1zmo579"></rect></g><g id="el5acd23v7f1x"><rect x="81.68" y="330.69" width="156.14" height="32.88" rx="7.12" style="fill: rgb(240, 240, 240); transform-origin: 159.75px 347.13px; transform: rotate(180deg);" class="animable" id="elfnse4vbaqwg"></rect></g><path d="M206.18,306.69H113.32a2.26,2.26,0,0,1-2.26-2.25h0a2.27,2.27,0,0,1,2.26-2.26h92.86a2.26,2.26,0,0,1,2.25,2.26h0A2.25,2.25,0,0,1,206.18,306.69Z" style="fill: rgb(245, 245, 245); transform-origin: 159.745px 304.435px;" id="elscjahlb9sn" class="animable"></path><path d="M206.18,349.39H113.32a2.26,2.26,0,0,1-2.26-2.25h0a2.27,2.27,0,0,1,2.26-2.26h92.86a2.26,2.26,0,0,1,2.25,2.26h0A2.25,2.25,0,0,1,206.18,349.39Z" style="fill: rgb(245, 245, 245); transform-origin: 159.745px 347.135px;" id="el1522lcrew0fk" class="animable"></path><g id="elra1s38jrxmg"><rect x="165.99" y="235.76" width="16.91" height="39.89" style="fill: rgb(224, 224, 224); transform-origin: 174.445px 255.705px; transform: rotate(180deg);" class="animable" id="elo3igrk60qwg"></rect></g><rect x="182.9" y="235.76" width="10.43" height="39.89" style="fill: rgb(235, 235, 235); transform-origin: 188.115px 255.705px;" id="elvqmkn3w7raq" class="animable"></rect><polygon points="146.57 230.56 165.99 230.56 173 275.65 153.57 275.65 146.57 230.56" style="fill: rgb(230, 230, 230); transform-origin: 159.785px 253.105px;" id="el3yxcd70j3a7" class="animable"></polygon><polygon points="174.39 230.56 165.99 230.56 173 275.65 181.4 275.65 174.39 230.56" style="fill: rgb(240, 240, 240); transform-origin: 173.695px 253.105px;" id="elilknfh7vak" class="animable"></polygon><g id="elzfgw9mp44pb"><rect x="137.69" y="234.46" width="18.78" height="41.2" style="fill: rgb(235, 235, 235); transform-origin: 147.08px 255.06px; transform: rotate(180deg);" class="animable" id="el0meowkqt4gdi"></rect></g><rect x="156.47" y="234.46" width="9.52" height="41.2" style="fill: rgb(245, 245, 245); transform-origin: 161.23px 255.06px;" id="el4jpcrkwrk3b" class="animable"></rect><g id="el48r78ozwsyf"><rect x="131.24" y="241.12" width="13.59" height="34.53" style="fill: rgb(224, 224, 224); transform-origin: 138.035px 258.385px; transform: rotate(180deg);" class="animable" id="elazlemljmuji"></rect></g><rect x="144.83" y="241.12" width="9.52" height="34.53" style="fill: rgb(230, 230, 230); transform-origin: 149.59px 258.385px;" id="el4tq8yt09qdp" class="animable"></rect></g><g id="freepik--Shadow--inject-23" class="animable" style="transform-origin: 250px 416.24px;"><ellipse id="freepik--path--inject-23" cx="250" cy="416.24" rx="193.89" ry="11.32" style="fill: rgb(245, 245, 245); transform-origin: 250px 416.24px;" class="animable"></ellipse></g><g id="freepik--Navigation--inject-23" class="animable" style="transform-origin: 314.875px 240.655px;"><path d="M336.81,355.89H237.25a7.52,7.52,0,0,1-7.59-8.45l20.83-207.55a9.59,9.59,0,0,1,9.29-8.45h99.56a7.53,7.53,0,0,1,7.6,8.45L346.1,347.44A9.58,9.58,0,0,1,336.81,355.89Z" style="fill: rgb(38, 50, 56); transform-origin: 298.299px 243.665px;" id="elotpzw0bxc7" class="animable"></path><rect x="289.63" y="358.39" width="22.65" height="1" style="fill: #3498DB; transform-origin: 300.955px 358.89px;" id="elq76spu0esas" class="animable"></rect><rect x="319.73" y="358.39" width="7.22" height="1" style="fill: #3498DB; transform-origin: 323.34px 358.89px;" id="elq8sgd4qyt8" class="animable"></rect><path d="M334.28,355.89H234.72a7.52,7.52,0,0,1-7.59-8.45L248,139.89a9.59,9.59,0,0,1,9.29-8.45h99.56a7.53,7.53,0,0,1,7.6,8.45L343.57,347.44A9.59,9.59,0,0,1,334.28,355.89Z" style="fill: #3498DB; transform-origin: 295.789px 243.665px;" id="el2e62khmm2lz" class="animable"></path><g id="elok2eo3rmmz"><g style="opacity: 0.4; transform-origin: 314.875px 240.655px;" class="animable" id="elered6ryvawn"><g id="el7i259g24jov"><path d="M331.58,352.11h-93.4a7.16,7.16,0,0,1-7.24-8.05l20.15-200.79a9.13,9.13,0,0,1,8.86-8.05h93.4a7.18,7.18,0,0,1,7.25,8.05L340.44,344.06A9.13,9.13,0,0,1,331.58,352.11Z" style="fill: rgb(255, 255, 255); opacity: 0.2; transform-origin: 295.769px 243.665px;" class="animable" id="el00zfo3914jtci"></path></g><g style="clip-path: url(&quot;#freepik--clip-path--inject-23&quot;); transform-origin: 314.875px 240.655px;" id="elkqtan8losi" class="animable"><polygon points="187.27 290.52 183.18 288.49 288.01 105.95 292.1 107.98 187.27 290.52" style="fill: rgb(255, 255, 255); transform-origin: 237.64px 198.235px;" id="eljxjnovywwgk" class="animable"></polygon><polygon points="206.4 296.78 202.5 294.44 319.64 118.64 323.55 120.98 206.4 296.78" style="fill: rgb(255, 255, 255); transform-origin: 263.025px 207.71px;" id="el8s61dk1np05" class="animable"></polygon><polygon points="219.42 335.7 215.46 333.44 353.2 118.3 357.16 120.56 219.42 335.7" style="fill: rgb(255, 255, 255); transform-origin: 286.31px 227px;" id="el3b2ns5jtwcv" class="animable"></polygon><polygon points="282.26 371.05 277.53 370.9 299.74 203.26 304.77 201.17 282.26 371.05" style="fill: rgb(255, 255, 255); transform-origin: 291.15px 286.11px;" id="elu6ux3b3rv8l" class="animable"></polygon><polygon points="262.39 402.37 258.44 400.11 396.18 184.96 400.14 187.22 262.39 402.37" style="fill: rgb(255, 255, 255); transform-origin: 329.29px 293.665px;" id="el1fexwvw8vgo" class="animable"></polygon><polygon points="231 136.07 233.91 132.02 429.09 260.41 426.19 264.45 231 136.07" style="fill: rgb(255, 255, 255); transform-origin: 330.045px 198.235px;" id="el1dxk5jjwu69" class="animable"></polygon><polygon points="237.28 111.43 238.12 110.17 438.96 230.38 438.13 231.63 237.28 111.43" style="fill: rgb(255, 255, 255); transform-origin: 338.12px 170.9px;" id="ely1llhe6gs2" class="animable"></polygon><polygon points="267.32 201.82 268.51 200.03 293.53 215 292.34 216.79 267.32 201.82" style="fill: rgb(255, 255, 255); transform-origin: 280.425px 208.41px;" id="el5uecpk7qgss" class="animable"></polygon><polygon points="297.15 251.62 298.35 249.83 341.55 275.68 340.35 277.48 297.15 251.62" style="fill: rgb(255, 255, 255); transform-origin: 319.35px 263.655px;" id="elhmongtb3nok" class="animable"></polygon><polygon points="224.36 320.96 225.55 319.16 283.1 353.6 281.91 355.4 224.36 320.96" style="fill: rgb(255, 255, 255); transform-origin: 253.73px 337.28px;" id="elem0fq61iwm" class="animable"></polygon><polygon points="250.94 175.83 252.72 174.61 268.28 199.16 266.5 200.38 250.94 175.83" style="fill: rgb(255, 255, 255); transform-origin: 259.61px 187.495px;" id="eloghhz3a0hg" class="animable"></polygon><polygon points="262.41 80.11 263.37 78.94 446.57 222.87 445.61 224.03 262.41 80.11" style="fill: rgb(255, 255, 255); transform-origin: 354.49px 151.485px;" id="elp2p9srngdij" class="animable"></polygon></g></g></g><path d="M307.63,304.81a20.37,20.37,0,0,1-19.81,18,16,16,0,0,1-16.19-18c1.82-18.12,20.83-28.23,20.83-28.23S309.45,286.69,307.63,304.81Z" style="fill: rgb(255, 255, 255); transform-origin: 289.635px 299.697px;" id="el9aa5i3h6bt9" class="animable"></path><g id="el5oyck0td4ts"><path d="M295.3,304.81a6.41,6.41,0,0,1-6.24,5.66,5,5,0,0,1-5.1-5.66,6.42,6.42,0,0,1,6.24-5.67A5,5,0,0,1,295.3,304.81Z" style="fill: #3498DB; opacity: 0.4; transform-origin: 289.631px 304.805px;" class="animable" id="elk66q2h955sq"></path></g><path d="M293.14,270.89h0a.9.9,0,0,1-.87-1l8.37-65.28a11.15,11.15,0,0,1,1.73-4.66l22.4-34.55a1,1,0,0,0-.25-1.36l-22.94-13.92a.94.94,0,0,1-.23-1.36,1.07,1.07,0,0,1,1.4-.38l22.93,13.92a2.86,2.86,0,0,1,.75,4.06L304,200.88a9.09,9.09,0,0,0-1.39,3.75l-8.36,65.29A1.14,1.14,0,0,1,293.14,270.89Z" style="fill: rgb(255, 255, 255); transform-origin: 309.616px 209.575px;" id="elzt4dgmi2ud9" class="animable"></path><path d="M290.13,124.4a16.39,16.39,0,0,1,15.95-14.5,12.89,12.89,0,0,1,13.05,14.5c-1.47,14.6-16.79,22.73-16.79,22.73S288.66,139,290.13,124.4Z" style="fill: #3498DB; transform-origin: 304.625px 128.514px;" id="elncooqq5jn0k" class="animable"></path><g id="elh9djpk7mcg"><path d="M290.13,124.4a16.39,16.39,0,0,1,15.95-14.5,12.89,12.89,0,0,1,13.05,14.5c-1.47,14.6-16.79,22.73-16.79,22.73S288.66,139,290.13,124.4Z" style="opacity: 0.3; transform-origin: 304.625px 128.514px;" class="animable" id="elxvnmb06ilk"></path></g><g id="elnhmjdehiif"><ellipse cx="304.63" cy="124.4" rx="9.61" ry="8.69" style="fill: #3498DB; transform-origin: 304.63px 124.4px; transform: rotate(-43.56deg);" class="animable" id="elp55fg0rsgm"></ellipse></g></g><g id="freepik--Character--inject-23" class="animable" style="transform-origin: 208.401px 269.669px;"><path d="M173.24,180.61c-.31.83-.67,1.9-1,2.87s-.64,2-1,3c-.62,2-1.22,4.08-1.76,6.15s-1,4.16-1.52,6.25l-.68,3.15-.33,1.58-.07.37,0,.21c0,.12,0,.35,0,.52a28.41,28.41,0,0,0,.48,5.77c.32,2.06.75,4.16,1.21,6.27.95,4.21,2,8.49,3.08,12.71l-4,1.5a116.93,116.93,0,0,1-5.22-12.45c-.76-2.14-1.44-4.31-2-6.57-.29-1.12-.55-2.28-.77-3.48a22.74,22.74,0,0,1-.41-3.87,8.71,8.71,0,0,1,0-1.13l.05-.61.06-.45.21-1.69c.13-1.12.32-2.25.49-3.37.38-2.24.77-4.48,1.29-6.7s1-4.43,1.69-6.63c.33-1.1.67-2.19,1-3.29s.74-2.14,1.24-3.36Z" style="fill: rgb(255, 195, 189); transform-origin: 166.236px 204.16px;" id="ell5k1ncgc5gk" class="animable"></path><path d="M167.47,230.35l-1.4,5.93,3.71,4.39s4.94-14.32-.27-13.63Z" style="fill: rgb(255, 195, 189); transform-origin: 168.984px 233.843px;" id="elph9gw538s18" class="animable"></path><path d="M187.38,408.18a10.18,10.18,0,0,1-2.21-.3.2.2,0,0,1-.07-.36c.29-.19,2.82-1.83,3.79-1.39a.67.67,0,0,1,.4.56,1.12,1.12,0,0,1-.31,1.05A2.38,2.38,0,0,1,187.38,408.18Zm-1.65-.58c1.46.29,2.56.24,3-.15a.74.74,0,0,0,.19-.71.28.28,0,0,0-.17-.25C188.22,406.26,186.76,407,185.73,407.6Z" style="fill: #3498DB; transform-origin: 187.166px 407.122px;" id="el0w3mjuq8zy5" class="animable"></path><path d="M185.22,407.88l-.1,0a.19.19,0,0,1-.1-.17c0-.11,0-2.52.88-3.32a1,1,0,0,1,.84-.27.68.68,0,0,1,.67.55c.2,1-1.3,2.75-2.1,3.21A.15.15,0,0,1,185.22,407.88Zm1.39-3.39a.66.66,0,0,0-.44.17,4.51,4.51,0,0,0-.75,2.64c.79-.64,1.73-2,1.61-2.57,0-.09-.08-.21-.33-.24Z" style="fill: #3498DB; transform-origin: 186.224px 405.998px;" id="elb3gxbc6k9e" class="animable"></path><path d="M187.5,164.15c.75-.05-.52-2.35-.87-2.53-.83-.43-9.74.84-9.31,2.22a4.68,4.68,0,0,0,1.21,2C179,166.16,180.92,164.42,187.5,164.15Z" style="fill: rgb(38, 50, 56); transform-origin: 182.519px 163.707px;" id="eldx12swbq2ti" class="animable"></path><path d="M181.47,169.6c-.25.71-2.12-1.13-2.2-1.53-.18-.91,3.46-9.14,4.67-8.35a4.68,4.68,0,0,1,1.61,1.71C185.71,162,183.52,163.35,181.47,169.6Z" style="fill: rgb(38, 50, 56); transform-origin: 182.411px 164.714px;" id="elrvgi5zzk2e" class="animable"></path><path d="M183.4,148.07c1,5,3.17,15-.27,18.35,0,0,1.4,5,10.64,5,10.16,0,4.8-5,4.8-5-5.55-1.32-5.45-5.43-4.52-9.3Z" style="fill: rgb(255, 195, 189); transform-origin: 191.556px 159.745px;" id="ely6stkbycrc8" class="animable"></path><path d="M180.76,168.41c-1.45.05.55-4.6,1.2-5,1.51-1,18.82-.19,18.26,2.53-.27,1.17-1.07,3.41-1.95,4.09S193.41,167.71,180.76,168.41Z" style="fill: rgb(38, 50, 56); transform-origin: 190.239px 166.564px;" id="el5irvyvrww9" class="animable"></path><path d="M203.47,137.41a.39.39,0,0,0,.32-.16,3.14,3.14,0,0,1,2.49-1.38.4.4,0,1,0,0-.79,3.89,3.89,0,0,0-3.18,1.7.39.39,0,0,0,.33.63Z" style="fill: rgb(38, 50, 56); transform-origin: 204.88px 136.243px;" id="elqif2kz9r5fk" class="animable"></path><path d="M205.73,142.18a18,18,0,0,0,2.29,4.41,2.93,2.93,0,0,1-2.43.35Z" style="fill: rgb(255, 86, 82); transform-origin: 206.805px 144.621px;" id="elyk3176ominl" class="animable"></path><path d="M205.16,141c0,.68.33,1.24.77,1.25s.81-.51.83-1.19-.32-1.23-.76-1.25S205.18,140.33,205.16,141Z" style="fill: rgb(38, 50, 56); transform-origin: 205.96px 141.03px;" id="elzkxdpi9jrkd" class="animable"></path><path d="M205.8,139.84l1.64-.4S206.57,140.67,205.8,139.84Z" style="fill: rgb(38, 50, 56); transform-origin: 206.62px 139.784px;" id="elx5c4404nky" class="animable"></path><polygon points="175.47 407.69 183.85 407.69 183 388.29 174.63 388.29 175.47 407.69" style="fill: rgb(255, 195, 189); transform-origin: 179.24px 397.99px;" id="el0id5v18l9q3v" class="animable"></polygon><path d="M184.5,406.72h-9.41a.64.64,0,0,0-.66.57l-1,7.44a1.36,1.36,0,0,0,1.36,1.49c3.28-.05,4.86-.25,9-.25,2.54,0,6.26.27,9.78.27s3.67-3.48,2.2-3.79c-6.58-1.42-7.63-3.36-9.86-5.22A2.24,2.24,0,0,0,184.5,406.72Z" style="fill: rgb(38, 50, 56); transform-origin: 185.036px 411.48px;" id="ellxvqvsygxpe" class="animable"></path><g id="el3vlzkqxiue4"><g style="opacity: 0.2; transform-origin: 179.03px 393.29px;" class="animable" id="elmo6of2yjvcc"><polygon points="174.62 388.29 183 388.29 183.44 398.29 175.06 398.29 174.62 388.29" id="elotinz2emv5" class="animable" style="transform-origin: 179.03px 393.29px;"></polygon></g></g><path d="M217.45,176.75c1.78,4.09,3.7,8.28,5.65,12.34a115.54,115.54,0,0,0,6.39,11.65,15.54,15.54,0,0,0,.88,1.3l.79,1.1a1.07,1.07,0,0,0,.63.48c.79.25,2.75-.24,4.51-1.11a55.69,55.69,0,0,0,10.71-7.4l3.14,2.84c-.74,1-1.49,1.93-2.28,2.85s-1.61,1.82-2.48,2.67a37.77,37.77,0,0,1-5.8,4.8,19.9,19.9,0,0,1-3.68,1.92A11.54,11.54,0,0,1,231,211a8.38,8.38,0,0,1-5.43-2.57c-.16-.16-.37-.39-.46-.5l-.31-.37-.61-.75c-.43-.5-.8-1-1.16-1.5a93.43,93.43,0,0,1-7.5-12.38c-2.19-4.23-4.16-8.45-6-12.9Z" style="fill: rgb(255, 195, 189); transform-origin: 229.84px 193.883px;" id="elshyfm6jpgua" class="animable"></path><path d="M247.08,194.87,251,193l2.35,6.25s-5.86,2.05-8.65-.24l.15-1.07A3.94,3.94,0,0,1,247.08,194.87Z" style="fill: rgb(255, 195, 189); transform-origin: 249.025px 196.547px;" id="elprailys9ebc" class="animable"></path><polygon points="256.86 192.88 257.57 197.49 253.38 199.22 251.03 192.97 256.86 192.88" style="fill: rgb(255, 195, 189); transform-origin: 254.3px 196.05px;" id="el2uizcl5pzfg" class="animable"></polygon><path d="M182.52,137.79c.27,8.31.21,11.83,4.27,16.25,6.11,6.65,16.26,4.61,18.48-3.59,2-7.38,1.23-19.73-6.79-23.35A11.24,11.24,0,0,0,182.52,137.79Z" style="fill: rgb(255, 195, 189); transform-origin: 194.356px 142.034px;" id="ele81tmtiwbvb" class="animable"></path><path d="M180.24,127.93c3.5-6.34,18.83-6.68,24,.4S202,135.22,200,142.18c.25,6.4,2.85,9.15,6.64,12.81-5.83,6.91-29.7,8-33.45,0S169.16,126.93,180.24,127.93Z" style="fill: rgb(38, 50, 56); transform-origin: 188.746px 141.843px;" id="elyharcfdjhkn" class="animable"></path><path d="M180.52,128.66s.56-2.59-2.67-2.35A10.72,10.72,0,0,1,180.52,128.66Z" style="fill: rgb(38, 50, 56); transform-origin: 179.204px 127.477px;" id="elhno05og8rme" class="animable"></path><path d="M198.5,141.64a7,7,0,0,0,1.95,4.17c1.49,1.53,3,.65,3.25-1.16.22-1.63-.29-4.39-2.1-5.26S198.36,139.79,198.5,141.64Z" style="fill: rgb(255, 195, 189); transform-origin: 201.119px 142.852px;" id="elu6s99a6lvxb" class="animable"></path><path d="M200.26,219.12s-4.29,57.49-9,89.89c-3.81,26.17-6.42,87.35-6.42,87.35H173.39s-6-59.08-4.21-85c4.59-65.49-4.7-77.09,6-92.27Z" style="fill: rgb(38, 50, 56); transform-origin: 184.553px 307.725px;" id="el2qc330zsqpc" class="animable"></path><g id="eljzy1f9r006k"><path d="M187.29,253.17a69,69,0,0,0,7.09,30.57c1.23-11.22,2.35-22.93,3.28-33.26C194,238.78,187.51,240.22,187.29,253.17Z" style="opacity: 0.2; transform-origin: 192.475px 263.128px;" class="animable" id="elitx4up7esn"></path></g><polygon points="186.38 396.58 171.83 396.58 171.02 391.48 186.41 390.96 186.38 396.58" style="fill: #3498DB; transform-origin: 178.715px 393.77px;" id="el7l9mz3imj3u" class="animable"></polygon><path d="M188.26,392.77a.2.2,0,0,1,0-.2.19.19,0,0,1,.19-.11c.43,0,4.16.36,4.75,1.38a.65.65,0,0,1,0,.62,1.07,1.07,0,0,1-.81.63c-1.2.21-3.08-1.35-4.1-2.29Zm4.55,1.22c-.39-.53-2.34-.92-3.82-1.08,1.42,1.24,2.64,1.91,3.31,1.79a.7.7,0,0,0,.53-.42.23.23,0,0,0,0-.25Z" style="fill: #3498DB; transform-origin: 190.756px 393.784px;" id="elxn0tupoc7p" class="animable"></path><path d="M188.26,392.77l0,0a.21.21,0,0,1,0-.2c.05-.07,1.4-1.88,2.75-2.06a1.44,1.44,0,0,1,1.12.29c.44.34.43.66.34.87-.36.88-3,1.37-4.08,1.22A.22.22,0,0,1,188.26,392.77Zm3.8-1.53a1.34,1.34,0,0,0-.17-.17,1.08,1.08,0,0,0-.82-.21,4.57,4.57,0,0,0-2.26,1.62c1.19,0,3.08-.47,3.29-1C192.12,391.44,192.15,391.36,192.06,391.24Z" style="fill: #3498DB; transform-origin: 190.377px 391.704px;" id="el72ab2v3cib4" class="animable"></path><polygon points="179.64 389.34 187.36 392.66 190.64 385.52 194.91 376.18 195.41 375.09 187.69 371.76 187.13 372.98 182.98 382.03 179.64 389.34" style="fill: rgb(255, 195, 189); transform-origin: 187.525px 382.21px;" id="el2ds8ydh7bxv" class="animable"></polygon><g id="elfu9bmm2ac2s"><polygon points="182.98 382.03 190.64 385.52 194.91 376.18 187.13 372.98 182.98 382.03" style="opacity: 0.2; transform-origin: 188.945px 379.25px;" class="animable" id="elnzva1wmhfc"></polygon></g><path d="M209.25,219.12s13.09,57.14,13.38,86.55c.26,26.57-28.75,77.11-28.75,77.11L183.39,378s18.81-60.83,16.93-69.35c-5.43-24.72-14.6-78-14.62-89.55Z" style="fill: rgb(38, 50, 56); transform-origin: 203.011px 300.94px;" id="elx9ftuas09d" class="animable"></path><path d="M188.46,391.54l-8-5a.66.66,0,0,0-.86.13l-4.81,5.74a1.36,1.36,0,0,0,.37,2c2.82,1.69,4.27,2.37,7.8,4.57,2.17,1.35,6.52,4.37,9.52,6.24s5-1,3.89-2c-4.86-4.68-6-7.7-7-10.45A2.17,2.17,0,0,0,188.46,391.54Z" style="fill: rgb(38, 50, 56); transform-origin: 185.592px 396.137px;" id="elo1o7mcsa5tg" class="animable"></path><polygon points="194.64 384.92 181.13 379.37 182.57 373.92 197.03 379.84 194.64 384.92" style="fill: #3498DB; transform-origin: 189.08px 379.42px;" id="elr6c7z00z6" class="animable"></polygon><path d="M179,177.71c.17-4.82-2.95-10.92-10.33-9.38-3.48.72-7.07,13.28-7.07,13.28l9.4,11C174.26,191.13,178.93,180.76,179,177.71Z" style="fill: #3498DB; transform-origin: 170.303px 180.349px;" id="elv0bzbgsry8" class="animable"></path><g id="elg2st4w705bl"><path d="M172.58,179A62.68,62.68,0,0,1,171,192.58l0,0c1.92-.89,4.34-4.92,6-8.67Z" style="opacity: 0.2; transform-origin: 174px 185.79px;" class="animable" id="elfvwvgflhqr"></path></g><path d="M212.75,168.57s4,1.4-3.5,50.55h-34c.43-13.84.37-22.38-6.53-50.8a99.75,99.75,0,0,1,14.43-1.9,107.4,107.4,0,0,1,15.44,0C205.21,167,212.75,168.57,212.75,168.57Z" style="fill: #3498DB; transform-origin: 191.268px 192.631px;" id="elq6cshf40vyc" class="animable"></path><g id="el2jscc6wk1z9"><path d="M212.52,185.39l-5.26.67c.33,4,2.9,8.76,5,11.29.43-3.66.75-6.85,1-9.63C212.85,186.28,212.52,185.39,212.52,185.39Z" style="opacity: 0.2; transform-origin: 210.26px 191.37px;" class="animable" id="eltgldpjiid1k"></path></g><path d="M212.75,168.57c4.18,1,9.41,12.44,9.41,12.44l-8.34,13.16s-10.6-7.92-10.5-19.37C203.37,170,207.69,167.34,212.75,168.57Z" style="fill: #3498DB; transform-origin: 212.74px 181.221px;" id="el0xsqjg9cqo8" class="animable"></path><path d="M174.7,217.13l-1.5,3c-.12.24.16.48.55.48h35.68c.31,0,.56-.15.58-.35l.27-3c0-.21-.24-.39-.58-.39H175.25A.6.6,0,0,0,174.7,217.13Z" style="fill: #3498DB; transform-origin: 191.726px 218.739px;" id="ely5rykv129l" class="animable"></path><g id="el8jxmo7ytml"><path d="M174.7,217.13l-1.5,3c-.12.24.16.48.55.48h35.68c.31,0,.56-.15.58-.35l.27-3c0-.21-.24-.39-.58-.39H175.25A.6.6,0,0,0,174.7,217.13Z" style="fill: rgb(255, 255, 255); opacity: 0.2; transform-origin: 191.726px 218.739px;" class="animable" id="el9y6yd1dqf0g"></path></g><path d="M179.36,221h-.92c-.18,0-.32-.1-.31-.21l.39-4c0-.12.17-.21.36-.21h.92c.18,0,.32.09.31.21l-.39,4C179.71,220.88,179.55,221,179.36,221Z" style="fill: rgb(38, 50, 56); transform-origin: 179.12px 218.79px;" id="eluer61ucmkub" class="animable"></path><path d="M201.73,221h-.92c-.19,0-.33-.1-.32-.21l.4-4c0-.12.17-.21.35-.21h.92c.19,0,.33.09.32.21l-.4,4C202.07,220.88,201.91,221,201.73,221Z" style="fill: rgb(38, 50, 56); transform-origin: 201.485px 218.79px;" id="elnypkb4qvpd" class="animable"></path></g><defs><clipPath id="freepik--clip-path--inject-23"><path d="M331.58,352.11h-93.4a7.16,7.16,0,0,1-7.24-8.05l20.15-200.79a9.13,9.13,0,0,1,8.86-8.05h93.4a7.18,7.18,0,0,1,7.25,8.05L340.44,344.06A9.13,9.13,0,0,1,331.58,352.11Z" style="fill:#fff;opacity:0.2"></path></clipPath></defs><defs>     <filter id="active" height="200%">         <feMorphology in="SourceAlpha" result="DILATED" operator="dilate" radius="2"></feMorphology>                <feFlood flood-color="#32DFEC" flood-opacity="1" result="PINK"></feFlood>        <feComposite in="PINK" in2="DILATED" operator="in" result="OUTLINE"></feComposite>        <feMerge>            <feMergeNode in="OUTLINE"></feMergeNode>            <feMergeNode in="SourceGraphic"></feMergeNode>        </feMerge>    </filter>    <filter id="hover" height="200%">        <feMorphology in="SourceAlpha" result="DILATED" operator="dilate" radius="2"></feMorphology>                <feFlood flood-color="#ff0000" flood-opacity="0.5" result="PINK"></feFlood>        <feComposite in="PINK" in2="DILATED" operator="in" result="OUTLINE"></feComposite>        <feMerge>            <feMergeNode in="OUTLINE"></feMergeNode>            <feMergeNode in="SourceGraphic"></feMergeNode>        </feMerge>            <feColorMatrix type="matrix" values="0   0   0   0   0                0   1   0   0   0                0   0   0   0   0                0   0   0   1   0 "></feColorMatrix>    </filter></defs></svg>